<?xml version="1.0" encoding="UTF-8" standalone="no"?>
<!-- Created with Inkscape (http://www.inkscape.org/) -->

<svg
   width="61.77203mm"
   height="66.497269mm"
   viewBox="0 0 61.77203 66.497269"
   version="1.1"
   id="svg117123"
   xmlns:xlink="http://www.w3.org/1999/xlink"
   xmlns="http://www.w3.org/2000/svg"
   xmlns:svg="http://www.w3.org/2000/svg">
  <defs
     id="defs117120">
    <linearGradient
       id="linearGradient117614">
      <stop
         style="stop-color:#d40000;stop-opacity:1"
         offset="0"
         id="stop117610" />
      <stop
         style="stop-color:#800000;stop-opacity:1"
         offset="1"
         id="stop117612" />
    </linearGradient>
    <radialGradient
       xlink:href="#linearGradient120108"
       id="radialGradient117616"
       cx="135.03638"
       cy="70.35038"
       fx="135.03638"
       fy="70.35038"
       r="30.886015"
       gradientTransform="matrix(0.36429943,0.41246111,-0.51169742,0.45194666,124.39373,1.0938482)"
       gradientUnits="userSpaceOnUse" />
    <linearGradient
       xlink:href="#linearGradient56968"
       id="linearGradient963"
       x1="119.87152"
       y1="73.153671"
       x2="142.69769"
       y2="68.951111"
       gradientUnits="userSpaceOnUse" />
    <linearGradient
       id="linearGradient120108">
      <stop
         style="stop-color:#c9ab42;stop-opacity:1"
         offset="0"
         id="stop120104" />
      <stop
         style="stop-color:#a56d02;stop-opacity:1"
         offset="1"
         id="stop120106" />
    </linearGradient>
    <radialGradient
       xlink:href="#linearGradient56968"
       id="radialGradient120110"
       cx="57.65049"
       cy="88.929794"
       fx="57.65049"
       fy="88.929794"
       r="11.357323"
       gradientTransform="matrix(0.51724095,-1.693338,1.4652255,0.44756184,-163.54628,105.69928)"
       gradientUnits="userSpaceOnUse" />
    <linearGradient
       xlink:href="#linearGradient56968"
       id="linearGradient93222"
       x1="445.36871"
       y1="295.82675"
       x2="683.64679"
       y2="295.82675"
       gradientUnits="userSpaceOnUse" />
    <linearGradient
       id="linearGradient56968">
      <stop
         style="stop-color:#8f541c;stop-opacity:1"
         offset="0"
         id="stop56952" />
      <stop
         style="stop-color:#b09042;stop-opacity:1"
         offset="0.12773934"
         id="stop56954" />
      <stop
         style="stop-color:#d5bf6a;stop-opacity:1"
         offset="0.24002911"
         id="stop56956" />
      <stop
         style="stop-color:#966e2b;stop-opacity:1"
         offset="0.44441992"
         id="stop56958" />
      <stop
         style="stop-color:#c6aa56;stop-opacity:1"
         offset="0.58005458"
         id="stop56960" />
      <stop
         style="stop-color:#d1a546;stop-opacity:1"
         offset="0.7485435"
         id="stop56962" />
      <stop
         style="stop-color:#9f7a34;stop-opacity:1"
         offset="0.87265646"
         id="stop56964" />
      <stop
         style="stop-color:#906230;stop-opacity:1"
         offset="1"
         id="stop56966" />
    </linearGradient>
    <filter
       style="color-interpolation-filters:sRGB"
       id="filter12441-4-7"
       x="-0.0035613894"
       y="-0.0038209286"
       width="1.0123222"
       height="1.0103571">
      <feFlood
         flood-opacity="0.89336279197832147"
         flood-color="rgb(36,9,63)"
         result="flood"
         id="feFlood12431-4-93" />
      <feComposite
         in="flood"
         in2="SourceGraphic"
         operator="in"
         result="composite1"
         id="feComposite12433-4-7" />
      <feGaussianBlur
         stdDeviation="0.01"
         id="feGaussianBlur60980-87" />
      <feOffset
         dx="1"
         dy="0.5"
         result="offset"
         id="feOffset12437-7-41" />
      <feComposite
         in="SourceGraphic"
         in2="offset"
         operator="over"
         result="fbSourceGraphic"
         id="feComposite12439-6-90" />
    </filter>
    <filter
       style="color-interpolation-filters:sRGB"
       id="filter1362"
       x="-0.0035613894"
       y="-0.0038209285"
       width="1.0123222"
       height="1.0103571">
      <feFlood
         flood-opacity="0.89336279197832147"
         flood-color="rgb(36,9,63)"
         result="flood"
         id="feFlood1352" />
      <feComposite
         in="flood"
         in2="SourceGraphic"
         operator="in"
         result="composite1"
         id="feComposite1354" />
      <feGaussianBlur
         stdDeviation="0.01"
         id="feGaussianBlur1356" />
      <feOffset
         dx="1"
         dy="0.5"
         result="offset"
         id="feOffset1358" />
      <feComposite
         in="SourceGraphic"
         in2="offset"
         operator="over"
         result="fbSourceGraphic"
         id="feComposite1360" />
    </filter>
    <filter
       style="color-interpolation-filters:sRGB"
       id="filter1393"
       x="-0.0035613894"
       y="-0.0038209285"
       width="1.0123222"
       height="1.0103571">
      <feFlood
         flood-opacity="0.89336279197832147"
         flood-color="rgb(36,9,63)"
         result="flood"
         id="feFlood1383" />
      <feComposite
         in="flood"
         in2="SourceGraphic"
         operator="in"
         result="composite1"
         id="feComposite1385" />
      <feGaussianBlur
         stdDeviation="0.01"
         id="feGaussianBlur1387" />
      <feOffset
         dx="1"
         dy="0.5"
         result="offset"
         id="feOffset1389" />
      <feComposite
         in="SourceGraphic"
         in2="offset"
         operator="over"
         result="fbSourceGraphic"
         id="feComposite1391" />
    </filter>
    <filter
       style="color-interpolation-filters:sRGB"
       id="filter1424"
       x="-0.0035613894"
       y="-0.0038209285"
       width="1.0123222"
       height="1.0103571">
      <feFlood
         flood-opacity="0.89336279197832147"
         flood-color="rgb(36,9,63)"
         result="flood"
         id="feFlood1414" />
      <feComposite
         in="flood"
         in2="SourceGraphic"
         operator="in"
         result="composite1"
         id="feComposite1416" />
      <feGaussianBlur
         stdDeviation="0.01"
         id="feGaussianBlur1418" />
      <feOffset
         dx="1"
         dy="0.5"
         result="offset"
         id="feOffset1420" />
      <feComposite
         in="SourceGraphic"
         in2="offset"
         operator="over"
         result="fbSourceGraphic"
         id="feComposite1422" />
    </filter>
    <linearGradient
       xlink:href="#linearGradient9447"
       id="linearGradient94152"
       x1="429.6311"
       y1="398.61551"
       x2="378.98492"
       y2="364.66324"
       gradientUnits="userSpaceOnUse"
       gradientTransform="translate(0,6)" />
    <linearGradient
       id="linearGradient9447">
      <stop
         style="stop-color:#ffba26;stop-opacity:1"
         offset="0"
         id="stop9443" />
      <stop
         style="stop-color:#4f3106;stop-opacity:1"
         offset="0.59191859"
         id="stop9547" />
      <stop
         style="stop-color:#c06a00;stop-opacity:1"
         offset="1"
         id="stop9445" />
    </linearGradient>
    <linearGradient
       xlink:href="#linearGradient56968"
       id="linearGradient1823"
       gradientUnits="userSpaceOnUse"
       x1="425.34253"
       y1="878.10895"
       x2="708.51868"
       y2="1013.9222" />
    <linearGradient
       xlink:href="#linearGradient56968"
       id="linearGradient1825"
       gradientUnits="userSpaceOnUse"
       x1="408.53503"
       y1="574.57349"
       x2="833.01624"
       y2="855.05396" />
    <linearGradient
       xlink:href="#linearGradient56968"
       id="linearGradient1827"
       gradientUnits="userSpaceOnUse"
       x1="724.29858"
       y1="663.30322"
       x2="1026.4866"
       y2="625.76245" />
  </defs>
  <g
     id="layer1"
     transform="translate(-96.063568,-62.187578)">
    <path
       style="fill:url(#radialGradient117616);fill-opacity:1.0;stroke-width:0.264583"
       d="m 113.74485,128.437 c -2.24937,-0.63634 -3.83109,-1.63189 -5.96414,-3.7539 -6.02381,-5.99261 -11.133664,-18.14416 -11.684338,-27.786053 -0.511141,-8.949695 4.993348,-17.035248 13.547438,-19.899853 1.89729,-0.635367 2.51429,-0.710076 5.95312,-0.720834 3.52889,-0.01104 4.02248,0.04897 6.15671,0.748522 1.27613,0.418288 3.11138,1.237679 4.07832,1.82087 1.71717,1.035676 1.77399,1.049945 2.44225,0.613301 1.73318,-1.132466 5.09819,-2.573098 6.90189,-2.954843 2.46325,-0.521335 7.39332,-0.392795 9.525,0.248342 l 1.45521,0.437677 0.008,1.786023 c 0.0101,2.352634 0.88852,4.286384 2.66898,5.875561 l 1.30454,1.164391 -0.60153,1.188189 c -0.72198,1.426082 -0.80809,3.794695 -0.19175,5.274192 0.46893,1.12563 2.02536,2.831679 3.09594,3.39354 0.66324,0.348086 0.72811,0.515832 0.73341,1.896423 0.01,2.586802 1.31594,4.647522 3.58021,5.649112 1.01731,0.45001 1.17617,0.61948 1.03935,1.10874 -2.51216,8.98342 -6.29572,16.17525 -10.75595,20.44503 -2.05974,1.97178 -3.56524,2.87033 -5.74474,3.42869 -3.30709,0.84724 -8.69156,-0.3687 -12.52457,-2.82834 l -1.25056,-0.80248 -0.73467,0.5187 c -3.50579,2.47522 -9.93255,4.02746 -13.03779,3.149 z"
       id="path117214" />
    <path
       style="fill:url(#linearGradient963);fill-opacity:1;stroke-width:0.264583"
       d="m 127.13184,76.967132 c -0.0759,-0.122797 -0.0174,-0.660178 0.1301,-1.19418 0.31728,-1.149112 0.16302,-1.492969 -0.66977,-1.492969 -0.33837,0 -1.57193,-0.478852 -2.74125,-1.064117 -3.61785,-1.810788 -6.06127,-5.120992 -6.72161,-9.106033 -0.15901,-0.959558 -0.22401,-1.809739 -0.14446,-1.889291 0.0796,-0.07955 0.90114,-0.0101 1.82576,0.154332 4.39279,0.781219 7.98754,3.611112 9.5898,7.549377 l 0.62706,1.541283 0.40964,-0.792166 c 1.50994,-2.919894 7.3368,-7.160928 10.54047,-7.671788 2.68538,-0.428214 4.41282,2.713538 2.52821,4.598148 -0.37053,0.370528 -1.36855,0.816843 -2.45561,1.098151 -3.47401,0.899 -6.86375,3.162872 -8.86448,5.920217 -0.40227,0.554404 -1.38157,1.349786 -2.1989,1.785938 -1.63341,0.871637 -1.65939,0.879525 -1.85496,0.563098 z"
       id="path117396" />
  </g>
</svg>
