<?xml version="1.0" encoding="UTF-8" standalone="no"?>
<!-- Created with Inkscape (http://www.inkscape.org/) -->

<svg
   version="1.1"
   id="svg2"
   width="120.10658"
   height="155.6205"
   viewBox="0 0 120.10658 155.6205"
   xmlns="http://www.w3.org/2000/svg"
   xmlns:svg="http://www.w3.org/2000/svg">
  <defs
     id="defs6" />
  <g
     id="g8"
     transform="translate(-26,-20.379507)">
    <g
       id="g1114"
       transform="translate(-0.68345023)"
       style="fill:#3d003d;fill-opacity:1">
      <rect
         style="fill:#3d003d;fill-rule:evenodd;fill-opacity:1"
         id="rect1003"
         width="13.937732"
         height="31.84403"
         x="67.564423"
         y="67.651894" />
      <rect
         style="fill:#3d003d;fill-rule:evenodd;fill-opacity:1"
         id="rect1003-9"
         width="13.937732"
         height="31.84403"
         x="91.971321"
         y="67.651894" />
    </g>
    <path
       style="fill:#3d003d;fill-opacity:1"
       d="m 77.999995,167 v -9 H 69 60 v -8.5 -8.5 h 9.05479 9.054787 l -0.304791,-4.71377 c -0.288341,-4.45936 -0.485435,-4.75047 -3.651725,-5.39353 -2.705231,-0.54942 -4.814241,0.0495 -11.000001,3.12403 C 53.23041,138.94855 46.05236,141 38.71849,141 33.32099,141 32.5007,140.70071 29.4,137.6 26.23925,134.43926 26,133.7481 26,127.77814 c 0,-3.53202 0.73481,-8.63952 1.63291,-11.35 1.84212,-5.55953 3.3701,-7.89475 2.629,-4.01792 -0.26935,1.40903 -0.18667,4.17731 0.18373,6.15173 0.90162,4.80604 5.17258,6.7606 11.61147,5.31388 23.84227,-5.357 75.81934,-55.596646 85.72341,-82.857953 3.92158,-10.794273 1.41878,-15.977725 -7.75303,-16.057019 l -4.52749,-0.03914 3.24084,-1.408734 c 6.28846,-2.733475 15.00948,-3.904364 19.36376,-2.599788 10.3024,3.086673 10.69413,18.618905 0.95803,37.985815 -2.73799,5.446369 -2.80167,5.935976 -2.30667,17.735408 0.4371,10.4191 0.21249,13.110804 -1.58891,19.041526 -5.046,16.612835 -19.26091,30.583815 -35.271686,34.666405 l -5.395369,1.37577 -0.304791,4.64094 L 93.890413,141 H 102.94521 112 v 8.5 8.5 h -9 -9.000005 v 9 9 h -8 -8 z m 26.390275,-56.94216 c 5.21735,-3.24123 10.36817,-9.25774 13.16009,-15.371881 1.46019,-3.197722 2.49621,-5.911037 2.30227,-6.029589 -0.19395,-0.118552 -6.21724,5.705766 -13.38509,12.94293 -11.973149,12.08892 -12.713615,13.04598 -9.109739,11.77446 2.1575,-0.76121 5.322109,-2.25337 7.032469,-3.31592 z M 43.52407,110.25 C 36.14043,100.21602 32.68903,85.334031 34.82393,72.736026 39.09178,47.551448 60.79906,29 85.999995,29 c 10.914332,0 24.375355,4.671306 32.346085,11.224894 l 2.84609,2.340067 -3.56406,5.96752 c -1.96023,3.282135 -3.98565,6.599782 -4.50092,7.372549 -0.76034,1.140303 -1.85336,0.732248 -5.80123,-2.165754 C 99.727779,48.161703 94.662058,46.492877 85.499995,46.549039 73.241944,46.624179 63.51257,51.85104 57.13716,61.786243 c -8.22166,12.812346 -7.43884,28.727124 1.99261,40.509867 2.45037,3.06126 2.80602,4.07632 1.83723,5.24365 C 59.50954,109.29589 49.70046,115 48.13798,115 c -0.6152,0 -2.69146,-2.1375 -4.61391,-4.75 z"
       id="path881" />
  </g>
</svg>
