<?xml version="1.0" encoding="UTF-8" standalone="no"?>
<!-- Created with Inkscape (http://www.inkscape.org/) -->

<svg
   version="1.1"
   id="svg2"
   width="120.10658"
   height="155.6205"
   viewBox="0 0 120.10658 155.6205"
   xmlns:xlink="http://www.w3.org/1999/xlink"
   xmlns="http://www.w3.org/2000/svg"
   xmlns:svg="http://www.w3.org/2000/svg">
  <defs
     id="defs6">
    <linearGradient
       xlink:href="#linearGradient56968"
       id="linearGradient832"
       x1="31.312994"
       y1="170.51489"
       x2="137.30704"
       y2="27.608633"
       gradientUnits="userSpaceOnUse" />
    <linearGradient
       id="linearGradient120108">
      <stop
         style="stop-color:#fad415;stop-opacity:1"
         offset="0"
         id="stop120104" />
      <stop
         style="stop-color:#cc5502;stop-opacity:1"
         offset="1"
         id="stop120106" />
    </linearGradient>
    <radialGradient
       xlink:href="#linearGradient56968"
       id="radialGradient120110"
       cx="57.65049"
       cy="88.929794"
       fx="57.65049"
       fy="88.929794"
       r="11.357323"
       gradientTransform="matrix(1.9549264,-6.4000177,5.5378602,1.6915723,-608.81432,344.65122)"
       gradientUnits="userSpaceOnUse" />
    <linearGradient
       xlink:href="#linearGradient56968"
       id="linearGradient93222"
       x1="445.36871"
       y1="295.82675"
       x2="683.64679"
       y2="295.82675"
       gradientUnits="userSpaceOnUse" />
    <linearGradient
       id="linearGradient56968">
      <stop
         style="stop-color:#8f541c;stop-opacity:1"
         offset="0"
         id="stop56952" />
      <stop
         style="stop-color:#b09042;stop-opacity:1"
         offset="0.12773934"
         id="stop56954" />
      <stop
         style="stop-color:#d5bf6a;stop-opacity:1"
         offset="0.24002911"
         id="stop56956" />
      <stop
         style="stop-color:#966e2b;stop-opacity:1"
         offset="0.44441992"
         id="stop56958" />
      <stop
         style="stop-color:#c6aa56;stop-opacity:1"
         offset="0.58005458"
         id="stop56960" />
      <stop
         style="stop-color:#d1a546;stop-opacity:1"
         offset="0.7485435"
         id="stop56962" />
      <stop
         style="stop-color:#9f7a34;stop-opacity:1"
         offset="0.87265646"
         id="stop56964" />
      <stop
         style="stop-color:#906230;stop-opacity:1"
         offset="1"
         id="stop56966" />
    </linearGradient>
    <filter
       style="color-interpolation-filters:sRGB"
       id="filter12441-4-7"
       x="-0.0035613894"
       y="-0.0038209286"
       width="1.0123222"
       height="1.0103571">
      <feFlood
         flood-opacity="0.89336279197832147"
         flood-color="rgb(36,9,63)"
         result="flood"
         id="feFlood12431-4-93" />
      <feComposite
         in="flood"
         in2="SourceGraphic"
         operator="in"
         result="composite1"
         id="feComposite12433-4-7" />
      <feGaussianBlur
         stdDeviation="0.01"
         id="feGaussianBlur60980-87" />
      <feOffset
         dx="1"
         dy="0.5"
         result="offset"
         id="feOffset12437-7-41" />
      <feComposite
         in="SourceGraphic"
         in2="offset"
         operator="over"
         result="fbSourceGraphic"
         id="feComposite12439-6-90" />
    </filter>
    <filter
       style="color-interpolation-filters:sRGB"
       id="filter1362"
       x="-0.0035613894"
       y="-0.0038209285"
       width="1.0123222"
       height="1.0103571">
      <feFlood
         flood-opacity="0.89336279197832147"
         flood-color="rgb(36,9,63)"
         result="flood"
         id="feFlood1352" />
      <feComposite
         in="flood"
         in2="SourceGraphic"
         operator="in"
         result="composite1"
         id="feComposite1354" />
      <feGaussianBlur
         stdDeviation="0.01"
         id="feGaussianBlur1356" />
      <feOffset
         dx="1"
         dy="0.5"
         result="offset"
         id="feOffset1358" />
      <feComposite
         in="SourceGraphic"
         in2="offset"
         operator="over"
         result="fbSourceGraphic"
         id="feComposite1360" />
    </filter>
    <filter
       style="color-interpolation-filters:sRGB"
       id="filter1393"
       x="-0.0035613894"
       y="-0.0038209285"
       width="1.0123222"
       height="1.0103571">
      <feFlood
         flood-opacity="0.89336279197832147"
         flood-color="rgb(36,9,63)"
         result="flood"
         id="feFlood1383" />
      <feComposite
         in="flood"
         in2="SourceGraphic"
         operator="in"
         result="composite1"
         id="feComposite1385" />
      <feGaussianBlur
         stdDeviation="0.01"
         id="feGaussianBlur1387" />
      <feOffset
         dx="1"
         dy="0.5"
         result="offset"
         id="feOffset1389" />
      <feComposite
         in="SourceGraphic"
         in2="offset"
         operator="over"
         result="fbSourceGraphic"
         id="feComposite1391" />
    </filter>
    <filter
       style="color-interpolation-filters:sRGB"
       id="filter1424"
       x="-0.0035613894"
       y="-0.0038209285"
       width="1.0123222"
       height="1.0103571">
      <feFlood
         flood-opacity="0.89336279197832147"
         flood-color="rgb(36,9,63)"
         result="flood"
         id="feFlood1414" />
      <feComposite
         in="flood"
         in2="SourceGraphic"
         operator="in"
         result="composite1"
         id="feComposite1416" />
      <feGaussianBlur
         stdDeviation="0.01"
         id="feGaussianBlur1418" />
      <feOffset
         dx="1"
         dy="0.5"
         result="offset"
         id="feOffset1420" />
      <feComposite
         in="SourceGraphic"
         in2="offset"
         operator="over"
         result="fbSourceGraphic"
         id="feComposite1422" />
    </filter>
    <linearGradient
       xlink:href="#linearGradient9447"
       id="linearGradient94152"
       x1="429.6311"
       y1="398.61551"
       x2="378.98492"
       y2="364.66324"
       gradientUnits="userSpaceOnUse"
       gradientTransform="translate(0,6)" />
    <linearGradient
       id="linearGradient9447">
      <stop
         style="stop-color:#ffba26;stop-opacity:1"
         offset="0"
         id="stop9443" />
      <stop
         style="stop-color:#4f3106;stop-opacity:1"
         offset="0.59191859"
         id="stop9547" />
      <stop
         style="stop-color:#c06a00;stop-opacity:1"
         offset="1"
         id="stop9445" />
    </linearGradient>
    <linearGradient
       xlink:href="#linearGradient56968"
       id="linearGradient1823"
       gradientUnits="userSpaceOnUse"
       x1="425.34253"
       y1="878.10895"
       x2="708.51868"
       y2="1013.9222" />
    <linearGradient
       xlink:href="#linearGradient56968"
       id="linearGradient1825"
       gradientUnits="userSpaceOnUse"
       x1="408.53503"
       y1="574.57349"
       x2="833.01624"
       y2="855.05396" />
    <linearGradient
       xlink:href="#linearGradient56968"
       id="linearGradient1827"
       gradientUnits="userSpaceOnUse"
       x1="724.29858"
       y1="663.30322"
       x2="1026.4866"
       y2="625.76245" />
  </defs>
  <g
     id="g8"
     transform="translate(-26,-20.379507)"
     style="fill:url(#linearGradient832);fill-opacity:1">
    <g
       id="g1114"
       transform="translate(-0.68345023)"
       style="fill:url(#linearGradient832);fill-opacity:1.0">
      <rect
         style="fill:url(#linearGradient832);fill-opacity:1.0;fill-rule:evenodd"
         id="rect1003"
         width="13.937732"
         height="31.84403"
         x="67.564423"
         y="67.651894" />
      <rect
         style="fill:url(#linearGradient832);fill-opacity:1.0;fill-rule:evenodd"
         id="rect1003-9"
         width="13.937732"
         height="31.84403"
         x="91.971321"
         y="67.651894" />
    </g>
    <path
       style="fill:url(#linearGradient832);fill-opacity:1.0"
       d="m 77.999995,167 v -9 H 69 60 v -8.5 -8.5 h 9.05479 9.054787 l -0.304791,-4.71377 c -0.288341,-4.45936 -0.485435,-4.75047 -3.651725,-5.39353 -2.705231,-0.54942 -4.814241,0.0495 -11.000001,3.12403 C 53.23041,138.94855 46.05236,141 38.71849,141 33.32099,141 32.5007,140.70071 29.4,137.6 26.23925,134.43926 26,133.7481 26,127.77814 c 0,-3.53202 0.73481,-8.63952 1.63291,-11.35 1.84212,-5.55953 3.3701,-7.89475 2.629,-4.01792 -0.26935,1.40903 -0.18667,4.17731 0.18373,6.15173 0.90162,4.80604 5.17258,6.7606 11.61147,5.31388 23.84227,-5.357 75.81934,-55.596646 85.72341,-82.857953 3.92158,-10.794273 1.41878,-15.977725 -7.75303,-16.057019 l -4.52749,-0.03914 3.24084,-1.408734 c 6.28846,-2.733475 15.00948,-3.904364 19.36376,-2.599788 10.3024,3.086673 10.69413,18.618905 0.95803,37.985815 -2.73799,5.446369 -2.80167,5.935976 -2.30667,17.735408 0.4371,10.4191 0.21249,13.110804 -1.58891,19.041526 -5.046,16.612835 -19.26091,30.583815 -35.271686,34.666405 l -5.395369,1.37577 -0.304791,4.64094 L 93.890413,141 H 102.94521 112 v 8.5 8.5 h -9 -9.000005 v 9 9 h -8 -8 z m 26.390275,-56.94216 c 5.21735,-3.24123 10.36817,-9.25774 13.16009,-15.371881 1.46019,-3.197722 2.49621,-5.911037 2.30227,-6.029589 -0.19395,-0.118552 -6.21724,5.705766 -13.38509,12.94293 -11.973149,12.08892 -12.713615,13.04598 -9.109739,11.77446 2.1575,-0.76121 5.322109,-2.25337 7.032469,-3.31592 z M 43.52407,110.25 C 36.14043,100.21602 32.68903,85.334031 34.82393,72.736026 39.09178,47.551448 60.79906,29 85.999995,29 c 10.914332,0 24.375355,4.671306 32.346085,11.224894 l 2.84609,2.340067 -3.56406,5.96752 c -1.96023,3.282135 -3.98565,6.599782 -4.50092,7.372549 -0.76034,1.140303 -1.85336,0.732248 -5.80123,-2.165754 C 99.727779,48.161703 94.662058,46.492877 85.499995,46.549039 73.241944,46.624179 63.51257,51.85104 57.13716,61.786243 c -8.22166,12.812346 -7.43884,28.727124 1.99261,40.509867 2.45037,3.06126 2.80602,4.07632 1.83723,5.24365 C 59.50954,109.29589 49.70046,115 48.13798,115 c -0.6152,0 -2.69146,-2.1375 -4.61391,-4.75 z"
       id="path881" />
  </g>
</svg>
