<?xml version="1.0" encoding="UTF-8" standalone="no"?>
<!-- Created with Inkscape (http://www.inkscape.org/) -->

<svg
   width="22.714645mm"
   height="34.800121mm"
   viewBox="0 0 22.714645 34.800121"
   version="1.1"
   id="svg119711"
   xmlns:xlink="http://www.w3.org/1999/xlink"
   xmlns="http://www.w3.org/2000/svg"
   xmlns:svg="http://www.w3.org/2000/svg">
  <defs
     id="defs119708">
    <linearGradient
       id="linearGradient120108">
      <stop
         style="stop-color:#fad415;stop-opacity:1"
         offset="0"
         id="stop120104" />
      <stop
         style="stop-color:#cc5502;stop-opacity:1"
         offset="1"
         id="stop120106" />
    </linearGradient>
    <radialGradient
       xlink:href="#linearGradient120108"
       id="radialGradient120110"
       cx="57.65049"
       cy="88.929794"
       fx="57.65049"
       fy="88.929794"
       r="11.357323"
       gradientTransform="matrix(0.51724095,-1.693338,1.4652255,0.44756184,-102.47085,150.18918)"
       gradientUnits="userSpaceOnUse" />
  </defs>
  <g
     id="layer1"
     transform="translate(-43.887781,-65.065764)">
    <path
       style="fill:url(#radialGradient120110);fill-opacity:1;stroke-width:0.264583"
       d="m 50.72117,99.270494 c -2.073572,-0.852987 -3.202792,-1.59598 -4.341898,-2.856833 -2.173041,-2.405298 -3.053215,-6.137132 -2.12483,-9.009025 0.250573,-0.775132 1.112116,-2.266638 1.92711,-3.336221 1.199725,-1.574499 1.496535,-2.169518 1.595387,-3.198291 0.108723,-1.131501 0.03238,-1.365358 -0.728732,-2.232213 -0.467597,-0.532565 -1.225033,-1.072973 -1.68319,-1.200907 l -0.833013,-0.232607 1.058333,-0.465346 c 1.964532,-0.8638 3.230199,-0.804218 5.785387,0.272354 0.381986,0.160941 0.312846,-0.04167 -0.305512,-0.895289 -2.469178,-3.408601 -1.276651,-8.437211 2.417899,-10.195714 1.961555,-0.933647 3.306098,-1.078349 5.12002,-0.551028 l 1.527919,0.444179 -1.055148,0.367197 c -0.580331,0.201958 -1.080621,0.36899 -1.111755,0.371181 -0.03113,0.0022 -0.358556,0.44834 -0.727604,0.991444 -0.500289,0.73624 -0.670997,1.328876 -0.670997,2.329449 0,1.794043 0.753864,2.931298 4.390831,6.623871 4.59231,4.662522 5.826726,7.406371 5.619343,12.490623 -0.08974,2.200095 -0.223208,2.820238 -0.923618,4.291512 -1.439338,3.023463 -3.682086,5.090792 -6.618912,6.101207 -1.94938,0.670683 -1.99649,0.652403 -0.601215,-0.233355 2.962869,-1.880904 4.446788,-5.754071 3.717994,-9.70431 -0.646731,-3.505436 -2.67027,-6.23229 -7.160407,-9.649129 -2.157171,-1.641532 -2.216128,-1.668128 -1.64334,-0.741339 0.326755,0.528702 0.665249,1.56201 0.752208,2.296239 0.25024,2.112893 -0.296876,3.518334 -2.369539,6.086901 -2.572911,3.188505 -2.952838,3.991459 -2.952838,6.240661 0,2.652935 1.139893,4.576847 3.423868,5.778804 1.201789,0.632451 0.198581,0.508032 -1.483751,-0.184015 z"
       id="path119856" />
  </g>
</svg>
