<?xml version="1.0" encoding="UTF-8" standalone="no"?>
<svg
   xmlns:dc="http://purl.org/dc/elements/1.1/"
   xmlns:cc="http://creativecommons.org/ns#"
   xmlns:rdf="http://www.w3.org/1999/02/22-rdf-syntax-ns#"
   xmlns:svg="http://www.w3.org/2000/svg"
   xmlns="http://www.w3.org/2000/svg"
   width="304"
   height="561"
   viewBox="0 0 80.433331 148.43126"
   version="1.1"
   id="dix">
  <defs
     id="defs2" />
  <metadata
     id="metadata5">
    <rdf:RDF>
      <cc:Work
         rdf:about="">
        <dc:format>image/svg+xml</dc:format>
        <dc:type
           rdf:resource="http://purl.org/dc/dcmitype/StillImage" />
        <dc:title>NutraU X</dc:title>
        <cc:license rdf:resource="http://creativecommons.org/licenses/by-sa/3.0/" />
      </cc:Work>
    </rdf:RDF>
  </metadata>
  <g
     id="layer1"
     transform="translate(-30.875639,-1.0238841)">
    <path
       style="fill:currentColor;stroke-width:1.01687"
       d="m 87.502619,145.31902 c -0.461086,-0.9227 -4.915128,-12.5335 -9.897873,-25.80177 -4.982741,-13.26827 -9.517023,-23.981531 -10.076179,-23.807252 -0.559159,0.174298 -1.914034,2.566319 -3.010834,5.315652 -1.699652,4.26048 -1.987917,7.42014 -1.951752,21.39283 l 0.04244,16.39404 -6.080179,0.63524 -9.343657,0.63526 h -3.263484 l -0.64838,-6.86255 C 40.945299,108.58668 45.437604,89.741177 56.131695,79.276228 L 60.609016,74.894844 48.550256,43.243102 C 41.917936,25.834643 36.737434,11.121669 37.262274,10.921527 L 53.143348,4.8653677 C 53.931429,4.564842 58.475564,15.367327 64.98472,32.569737 70.750344,47.807142 75.815152,60.668633 76.23985,61.150831 77.565852,62.65636 83.152217,53.737857 84.005839,48.752604 85.101517,42.353721 84.591861,27.717702 82.884721,16.557118 82.114938,11.524584 81.59829,7.2811044 81.736622,7.1271643 L 100.2556,4.1992121 c 0.59098,-0.093451 3.14766,19.8064239 3.88396,27.6316689 0.89763,9.539932 -1.03792,22.959803 -4.319241,29.946861 -1.471638,3.133613 -5.637906,8.756755 -9.431697,12.7298 l -6.795627,7.116721 11.062951,28.899117 c 6.084624,15.89451 10.708314,29.23436 10.274874,29.64409 -0.43344,0.40974 -4.34348,2.11392 -8.688968,3.78708 -7.111008,2.73797 -7.984703,2.87438 -8.739233,1.36447 z"
       id="path847" />
  </g>
</svg>
