<?xml version="1.0" encoding="UTF-8" standalone="no"?>
<!-- Generator: Adobe Illustrator 16.0.0, SVG Export Plug-In . SVG Version: 6.00 Build 0)  -->

<svg
   version="1.1"
   id="Capa_1"
   x="0px"
   y="0px"
   width="453.42191"
   height="472.08984"
   viewBox="0 0 453.42192 472.08986"
   xml:space="preserve"
   sodipodi:docname="rain1.svg"
   inkscape:version="1.1 (1:1.1+202105261518+ce6663b3b7)"
   xmlns:inkscape="http://www.inkscape.org/namespaces/inkscape"
   xmlns:sodipodi="http://sodipodi.sourceforge.net/DTD/sodipodi-0.dtd"
   xmlns:xlink="http://www.w3.org/1999/xlink"
   xmlns="http://www.w3.org/2000/svg"
   xmlns:svg="http://www.w3.org/2000/svg"><defs
   id="defs39"><linearGradient
   xlink:href="#linearGradient56968"
   id="linearGradient93222"
   x1="445.36871"
   y1="295.82675"
   x2="683.64679"
   y2="295.82675"
   gradientUnits="userSpaceOnUse" /><linearGradient
   id="linearGradient56968"><stop
     style="stop-color:#8f541c;stop-opacity:1"
     offset="0"
     id="stop56952" /><stop
     style="stop-color:#b09042;stop-opacity:1"
     offset="0.12773934"
     id="stop56954" /><stop
     style="stop-color:#d5bf6a;stop-opacity:1"
     offset="0.24002911"
     id="stop56956" /><stop
     style="stop-color:#966e2b;stop-opacity:1"
     offset="0.44441992"
     id="stop56958" /><stop
     style="stop-color:#c6aa56;stop-opacity:1"
     offset="0.58005458"
     id="stop56960" /><stop
     style="stop-color:#d1a546;stop-opacity:1"
     offset="0.7485435"
     id="stop56962" /><stop
     style="stop-color:#9f7a34;stop-opacity:1"
     offset="0.87265646"
     id="stop56964" /><stop
     style="stop-color:#906230;stop-opacity:1"
     offset="1"
     id="stop56966" /></linearGradient><filter
   style="color-interpolation-filters:sRGB"
   id="filter12441-4-7"
   x="-0.0035613894"
   y="-0.0038209285"
   width="1.0123222"
   height="1.0103571"><feFlood
     flood-opacity="0.89336279197832147"
     flood-color="rgb(36,9,63)"
     result="flood"
     id="feFlood12431-4-93" /><feComposite
     in="flood"
     in2="SourceGraphic"
     operator="in"
     result="composite1"
     id="feComposite12433-4-7" /><feGaussianBlur
     stdDeviation="0.01"
     id="feGaussianBlur60980-87" /><feOffset
     dx="1"
     dy="0.5"
     result="offset"
     id="feOffset12437-7-41" /><feComposite
     in="SourceGraphic"
     in2="offset"
     operator="over"
     result="fbSourceGraphic"
     id="feComposite12439-6-90" /></filter><filter
   style="color-interpolation-filters:sRGB"
   id="filter1362"
   x="-0.0035613894"
   y="-0.0038209285"
   width="1.0123222"
   height="1.0103571"><feFlood
     flood-opacity="0.89336279197832147"
     flood-color="rgb(36,9,63)"
     result="flood"
     id="feFlood1352" /><feComposite
     in="flood"
     in2="SourceGraphic"
     operator="in"
     result="composite1"
     id="feComposite1354" /><feGaussianBlur
     stdDeviation="0.01"
     id="feGaussianBlur1356" /><feOffset
     dx="1"
     dy="0.5"
     result="offset"
     id="feOffset1358" /><feComposite
     in="SourceGraphic"
     in2="offset"
     operator="over"
     result="fbSourceGraphic"
     id="feComposite1360" /></filter><filter
   style="color-interpolation-filters:sRGB"
   id="filter1393"
   x="-0.0035613894"
   y="-0.0038209285"
   width="1.0123222"
   height="1.0103571"><feFlood
     flood-opacity="0.89336279197832147"
     flood-color="rgb(36,9,63)"
     result="flood"
     id="feFlood1383" /><feComposite
     in="flood"
     in2="SourceGraphic"
     operator="in"
     result="composite1"
     id="feComposite1385" /><feGaussianBlur
     stdDeviation="0.01"
     id="feGaussianBlur1387" /><feOffset
     dx="1"
     dy="0.5"
     result="offset"
     id="feOffset1389" /><feComposite
     in="SourceGraphic"
     in2="offset"
     operator="over"
     result="fbSourceGraphic"
     id="feComposite1391" /></filter><filter
   style="color-interpolation-filters:sRGB"
   id="filter1424"
   x="-0.0035613894"
   y="-0.0038209285"
   width="1.0123222"
   height="1.0103571"><feFlood
     flood-opacity="0.89336279197832147"
     flood-color="rgb(36,9,63)"
     result="flood"
     id="feFlood1414" /><feComposite
     in="flood"
     in2="SourceGraphic"
     operator="in"
     result="composite1"
     id="feComposite1416" /><feGaussianBlur
     stdDeviation="0.01"
     id="feGaussianBlur1418" /><feOffset
     dx="1"
     dy="0.5"
     result="offset"
     id="feOffset1420" /><feComposite
     in="SourceGraphic"
     in2="offset"
     operator="over"
     result="fbSourceGraphic"
     id="feComposite1422" /></filter><linearGradient
   xlink:href="#linearGradient9447"
   id="linearGradient94152"
   x1="429.6311"
   y1="398.61551"
   x2="378.98492"
   y2="364.66324"
   gradientUnits="userSpaceOnUse"
   gradientTransform="translate(0,6)" /><linearGradient
   id="linearGradient9447"><stop
     style="stop-color:#ffba26;stop-opacity:1"
     offset="0"
     id="stop9443" /><stop
     style="stop-color:#4f3106;stop-opacity:1"
     offset="0.59191859"
     id="stop9547" /><stop
     style="stop-color:#c06a00;stop-opacity:1"
     offset="1"
     id="stop9445" /></linearGradient><linearGradient
   xlink:href="#linearGradient56968"
   id="linearGradient1823"
   gradientUnits="userSpaceOnUse"
   x1="425.34253"
   y1="878.10895"
   x2="708.51868"
   y2="1013.9222" /><linearGradient
   xlink:href="#linearGradient56968"
   id="linearGradient1825"
   gradientUnits="userSpaceOnUse"
   x1="408.53503"
   y1="574.57349"
   x2="833.01624"
   y2="855.05396" /><linearGradient
   xlink:href="#linearGradient56968"
   id="linearGradient1827"
   gradientUnits="userSpaceOnUse"
   x1="724.29858"
   y1="663.30322"
   x2="1026.4866"
   y2="625.76245" /><linearGradient
   xlink:href="#linearGradient9447"
   id="linearGradient957"
   x1="0"
   y1="449.14999"
   x2="898.29999"
   y2="449.14999"
   gradientUnits="userSpaceOnUse" /><linearGradient
   inkscape:collect="always"
   xlink:href="#linearGradient56968"
   id="linearGradient1259"
   x1="0"
   y1="226.711"
   x2="453.42099"
   y2="226.711"
   gradientUnits="userSpaceOnUse" /><linearGradient
   inkscape:collect="always"
   xlink:href="#linearGradient56968"
   id="linearGradient1675"
   gradientUnits="userSpaceOnUse"
   x1="0"
   y1="226.711"
   x2="453.42099"
   y2="226.711" />

	


	



	

	

	

	

	


	

	




	








	

		
	
		
	
		
	
		
	
		
	
		
	
		
	
		
	
		
	
		
	
		
	<linearGradient
   inkscape:collect="always"
   xlink:href="#linearGradient56968"
   id="linearGradient2007"
   x1="145.2834"
   y1="-230.60777"
   x2="370.75073"
   y2="-230.60777"
   gradientUnits="userSpaceOnUse" /><linearGradient
   inkscape:collect="always"
   xlink:href="#linearGradient56968"
   id="linearGradient2009"
   gradientUnits="userSpaceOnUse"
   x1="145.2834"
   y1="-230.60777"
   x2="370.75073"
   y2="-230.60777" /><linearGradient
   inkscape:collect="always"
   xlink:href="#linearGradient56968"
   id="linearGradient2011"
   gradientUnits="userSpaceOnUse"
   x1="145.2834"
   y1="-230.60777"
   x2="370.75073"
   y2="-230.60777" /><linearGradient
   inkscape:collect="always"
   xlink:href="#linearGradient56968"
   id="linearGradient2013"
   gradientUnits="userSpaceOnUse"
   x1="145.2834"
   y1="-230.60777"
   x2="370.75073"
   y2="-230.60777" /><linearGradient
   inkscape:collect="always"
   xlink:href="#linearGradient56968"
   id="linearGradient2015"
   gradientUnits="userSpaceOnUse"
   x1="145.2834"
   y1="-230.60777"
   x2="370.75073"
   y2="-230.60777" /><linearGradient
   inkscape:collect="always"
   xlink:href="#linearGradient56968"
   id="linearGradient2017"
   gradientUnits="userSpaceOnUse"
   x1="145.2834"
   y1="-230.60777"
   x2="370.75073"
   y2="-230.60777" /><linearGradient
   inkscape:collect="always"
   xlink:href="#linearGradient56968"
   id="linearGradient2019"
   gradientUnits="userSpaceOnUse"
   x1="145.2834"
   y1="-230.60777"
   x2="370.75073"
   y2="-230.60777" /><linearGradient
   inkscape:collect="always"
   xlink:href="#linearGradient56968"
   id="linearGradient2021"
   gradientUnits="userSpaceOnUse"
   x1="145.2834"
   y1="-230.60777"
   x2="370.75073"
   y2="-230.60777" /><linearGradient
   inkscape:collect="always"
   xlink:href="#linearGradient56968"
   id="linearGradient2023"
   gradientUnits="userSpaceOnUse"
   x1="145.2834"
   y1="-230.60777"
   x2="370.75073"
   y2="-230.60777" /><linearGradient
   inkscape:collect="always"
   xlink:href="#linearGradient56968"
   id="linearGradient2025"
   gradientUnits="userSpaceOnUse"
   x1="145.2834"
   y1="-230.60777"
   x2="370.75073"
   y2="-230.60777" /><linearGradient
   inkscape:collect="always"
   xlink:href="#linearGradient56968"
   id="linearGradient2027"
   gradientUnits="userSpaceOnUse"
   x1="145.2834"
   y1="-230.60777"
   x2="370.75073"
   y2="-230.60777" /></defs><sodipodi:namedview
   id="namedview37"
   pagecolor="#ffffff"
   bordercolor="#666666"
   borderopacity="1.0"
   inkscape:pageshadow="2"
   inkscape:pageopacity="0.0"
   inkscape:pagecheckerboard="0"
   showgrid="false"
   inkscape:zoom="0.65810597"
   inkscape:cx="225.64755"
   inkscape:cy="16.714633"
   inkscape:window-width="1848"
   inkscape:window-height="1035"
   inkscape:window-x="72"
   inkscape:window-y="27"
   inkscape:window-maximized="1"
   inkscape:current-layer="Capa_1"
   fit-margin-top="0"
   fit-margin-left="0"
   fit-margin-right="0"
   fit-margin-bottom="0" />
<g
   id="g4"
   style="fill:url(#linearGradient1259);fill-opacity:1"
   transform="translate(0,-55.697266)">
	<path
   id="path2"
   style="fill:url(#linearGradient1675);fill-opacity:1"
   d="m 198.55859,55.697266 c -79.095,0 -143.449215,64.347124 -143.449215,143.453124 0,0.47 0.0036,0.93525 0.01758,1.40625 C 21.395953,218.75664 0,254.17203 0,292.83203 c 0,57.833 47.045766,104.89258 104.88477,104.89258 h 0.70117 v -22.41992 h -0.70117 c -45.472004,0 -82.470708,-37.00166 -82.470708,-82.47266 0,-32.46 19.192672,-62.0053 48.888672,-75.2793 l 7.095704,-3.16992 -0.603516,-9.68945 c -0.122,-1.839 -0.265625,-3.67197 -0.265625,-5.54297 0,-66.74 54.297113,-121.041015 121.037113,-121.041015 66.749,0 121.05611,54.297235 121.03711,121.115235 -0.032,0.523 -0.0653,1.03092 -0.0703,1.54492 l -0.13281,13.69141 13.44531,-2.57813 c 5.313,-1.021 10.59417,-1.53125 15.70118,-1.53125 45.47899,0 82.4707,36.99452 82.4707,82.47852 0,45.472 -37.00638,82.47461 -82.48438,82.47461 h -26.75586 v 22.41992 h 26.75586 c 57.828,0 104.88868,-47.05458 104.88868,-104.89258 0,-57.835 -47.06068,-104.88867 -104.88868,-104.88867 -2.287,0 -4.59578,0.0852 -6.92578,0.24219 -5.621,-73.995 -67.62383,-132.488284 -143.04883,-132.488284 z" />
</g>















<g
   id="g1945"
   style="fill:url(#linearGradient2007);fill-opacity:1"
   transform="translate(-45.870412,569.95696)"><path
     d="m 214.92419,-345.45542 -11.617,-17.893 -17.892,11.62 c -9.88,6.417 -12.69,19.629 -6.273,29.511 6.42,9.882 19.632,12.69 29.512,6.272 9.879,-6.417 12.689,-19.629 6.27,-29.51 z"
     id="path1386"
     style="fill:url(#linearGradient2009);fill-opacity:1" /><path
     d="m 199.71719,-273.91042 -11.619,-17.892 -17.892,11.619 c -9.88,6.417 -12.69,19.629 -6.273,29.511 6.419,9.882 19.632,12.689 29.512,6.273 9.88,-6.418 12.69,-19.63 6.272,-29.511 z"
     id="path1392"
     style="fill:url(#linearGradient2011);fill-opacity:1" /><path
     d="m 184.51119,-202.36542 -11.619,-17.893 -17.892,11.62 c -9.88,6.417 -12.69,19.629 -6.273,29.511 6.419,9.882 19.632,12.69 29.512,6.272 9.88,-6.417 12.69,-19.629 6.272,-29.51 z"
     id="path1398"
     style="fill:url(#linearGradient2013);fill-opacity:1" /><path
     d="m 293.84219,-345.45542 -11.619,-17.892 -17.893,11.619 c -9.88,6.418 -12.688,19.629 -6.272,29.511 6.417,9.882 19.629,12.69 29.512,6.273 9.881,-6.418 12.688,-19.63 6.272,-29.511 z"
     id="path1404"
     style="fill:url(#linearGradient2015);fill-opacity:1" /><path
     d="m 278.63519,-273.90942 -11.618,-17.893 -17.893,11.62 c -9.88,6.417 -12.688,19.629 -6.272,29.511 6.417,9.88 19.629,12.689 29.509,6.272 9.883,-6.418 12.691,-19.63 6.274,-29.51 z"
     id="path1410"
     style="fill:url(#linearGradient2017);fill-opacity:1" /><path
     d="m 263.42719,-202.36642 -11.617,-17.892 -17.893,11.619 c -9.88,6.417 -12.688,19.629 -6.272,29.511 6.417,9.882 19.629,12.69 29.51,6.272 9.882,-6.417 12.689,-19.629 6.272,-29.51 z"
     id="path1416"
     style="fill:url(#linearGradient2019);fill-opacity:1" /><path
     d="m 248.22119,-130.82042 -11.618,-17.893 -17.893,11.62 c -9.88,6.417 -12.688,19.629 -6.272,29.509 6.417,9.882 19.629,12.69 29.509,6.273 9.883,-6.417 12.691,-19.629 6.274,-29.509 z"
     id="path1422"
     style="fill:url(#linearGradient2021);fill-opacity:1" /><path
     d="m 367.30619,-345.45542 -11.619,-17.892 -17.892,11.62 c -9.88,6.417 -12.69,19.629 -6.273,29.511 6.419,9.88 19.63,12.689 29.512,6.272 9.88,-6.418 12.69,-19.63 6.272,-29.511 z"
     id="path1428"
     style="fill:url(#linearGradient2023);fill-opacity:1" /><path
     d="m 352.09819,-273.90942 -11.617,-17.893 -17.892,11.62 c -9.882,6.417 -12.69,19.629 -6.274,29.511 6.419,9.88 19.632,12.689 29.512,6.272 9.879,-6.418 12.689,-19.63 6.271,-29.51 z"
     id="path1434"
     style="fill:url(#linearGradient2025);fill-opacity:1" /><path
     d="m 336.89219,-202.36542 -11.619,-17.893 -17.892,11.62 c -9.88,6.417 -12.69,19.629 -6.273,29.511 6.419,9.882 19.632,12.69 29.512,6.272 9.88,-6.417 12.69,-19.629 6.272,-29.51 z"
     id="path1440"
     style="fill:url(#linearGradient2027);fill-opacity:1" /></g></svg>
